<mxfile host="Electron" modified="2024-02-11T21:03:44.071Z" agent="Mozilla/5.0 (Windows NT 10.0; Win64; x64) AppleWebKit/537.36 (KHTML, like Gecko) draw.io/22.1.2 Chrome/114.0.5735.289 Electron/25.9.4 Safari/537.36" etag="9c5pc_PI29epkU4kRMat" version="22.1.2" type="device">
  <diagram name="Страница — 1" id="6igbku1FgJ1bJ7W9x04K">
    <mxGraphModel dx="281" dy="621" grid="1" gridSize="10" guides="1" tooltips="1" connect="1" arrows="1" fold="1" page="1" pageScale="1" pageWidth="827" pageHeight="1169" math="0" shadow="0">
      <root>
        <mxCell id="0" />
        <mxCell id="1" parent="0" />
        <mxCell id="2nkDqUIFO4ZgNHVhvO28-3" style="edgeStyle=orthogonalEdgeStyle;rounded=0;orthogonalLoop=1;jettySize=auto;html=1;entryX=0.5;entryY=0;entryDx=0;entryDy=0;" edge="1" parent="1" source="2nkDqUIFO4ZgNHVhvO28-1" target="2nkDqUIFO4ZgNHVhvO28-2">
          <mxGeometry relative="1" as="geometry" />
        </mxCell>
        <mxCell id="2nkDqUIFO4ZgNHVhvO28-1" value="get_lines (int count_lines, Line* lines, int count, int* arr)" style="rounded=1;whiteSpace=wrap;html=1;" vertex="1" parent="1">
          <mxGeometry x="70" y="80" width="100" height="50" as="geometry" />
        </mxCell>
        <mxCell id="2nkDqUIFO4ZgNHVhvO28-5" style="edgeStyle=orthogonalEdgeStyle;rounded=0;orthogonalLoop=1;jettySize=auto;html=1;entryX=0.5;entryY=0;entryDx=0;entryDy=0;" edge="1" parent="1" source="2nkDqUIFO4ZgNHVhvO28-2" target="2nkDqUIFO4ZgNHVhvO28-4">
          <mxGeometry relative="1" as="geometry" />
        </mxCell>
        <mxCell id="2nkDqUIFO4ZgNHVhvO28-2" value="double* temp = NULL;" style="rounded=0;whiteSpace=wrap;html=1;" vertex="1" parent="1">
          <mxGeometry x="80" y="150" width="80" height="40" as="geometry" />
        </mxCell>
        <mxCell id="2nkDqUIFO4ZgNHVhvO28-7" style="edgeStyle=orthogonalEdgeStyle;rounded=0;orthogonalLoop=1;jettySize=auto;html=1;entryX=0.5;entryY=0;entryDx=0;entryDy=0;" edge="1" parent="1" source="2nkDqUIFO4ZgNHVhvO28-4" target="2nkDqUIFO4ZgNHVhvO28-6">
          <mxGeometry relative="1" as="geometry" />
        </mxCell>
        <mxCell id="2nkDqUIFO4ZgNHVhvO28-4" value="для i от 0 до count_lines - 1" style="shape=hexagon;perimeter=hexagonPerimeter2;whiteSpace=wrap;html=1;fixedSize=1;" vertex="1" parent="1">
          <mxGeometry x="75" y="210" width="90" height="40" as="geometry" />
        </mxCell>
        <mxCell id="2nkDqUIFO4ZgNHVhvO28-11" style="edgeStyle=orthogonalEdgeStyle;rounded=0;orthogonalLoop=1;jettySize=auto;html=1;entryX=0.5;entryY=0;entryDx=0;entryDy=0;" edge="1" parent="1" source="2nkDqUIFO4ZgNHVhvO28-6" target="2nkDqUIFO4ZgNHVhvO28-10">
          <mxGeometry relative="1" as="geometry" />
        </mxCell>
        <mxCell id="2nkDqUIFO4ZgNHVhvO28-6" value="lines[i].count = arr[i];" style="rounded=0;whiteSpace=wrap;html=1;" vertex="1" parent="1">
          <mxGeometry x="75" y="270" width="90" height="40" as="geometry" />
        </mxCell>
        <mxCell id="2nkDqUIFO4ZgNHVhvO28-15" style="edgeStyle=orthogonalEdgeStyle;rounded=0;orthogonalLoop=1;jettySize=auto;html=1;entryX=0.5;entryY=0;entryDx=0;entryDy=0;" edge="1" parent="1" source="2nkDqUIFO4ZgNHVhvO28-8" target="2nkDqUIFO4ZgNHVhvO28-14">
          <mxGeometry relative="1" as="geometry" />
        </mxCell>
        <mxCell id="2nkDqUIFO4ZgNHVhvO28-22" style="edgeStyle=orthogonalEdgeStyle;rounded=0;orthogonalLoop=1;jettySize=auto;html=1;entryX=0.5;entryY=0;entryDx=0;entryDy=0;" edge="1" parent="1" source="2nkDqUIFO4ZgNHVhvO28-8" target="2nkDqUIFO4ZgNHVhvO28-18">
          <mxGeometry relative="1" as="geometry" />
        </mxCell>
        <mxCell id="2nkDqUIFO4ZgNHVhvO28-8" value="для j от 0 до arr[i] - 1" style="shape=hexagon;perimeter=hexagonPerimeter2;whiteSpace=wrap;html=1;fixedSize=1;" vertex="1" parent="1">
          <mxGeometry x="80" y="390" width="80" height="40" as="geometry" />
        </mxCell>
        <mxCell id="2nkDqUIFO4ZgNHVhvO28-12" style="edgeStyle=orthogonalEdgeStyle;rounded=0;orthogonalLoop=1;jettySize=auto;html=1;entryX=0.5;entryY=0;entryDx=0;entryDy=0;" edge="1" parent="1" source="2nkDqUIFO4ZgNHVhvO28-10" target="2nkDqUIFO4ZgNHVhvO28-8">
          <mxGeometry relative="1" as="geometry" />
        </mxCell>
        <mxCell id="2nkDqUIFO4ZgNHVhvO28-10" value="temp = (double*) (calloc(arr[i], sizeof(double)));" style="rounded=0;whiteSpace=wrap;html=1;" vertex="1" parent="1">
          <mxGeometry x="67.5" y="330" width="105" height="40" as="geometry" />
        </mxCell>
        <mxCell id="2nkDqUIFO4ZgNHVhvO28-17" style="edgeStyle=orthogonalEdgeStyle;rounded=0;orthogonalLoop=1;jettySize=auto;html=1;entryX=0;entryY=0.5;entryDx=0;entryDy=0;" edge="1" parent="1" source="2nkDqUIFO4ZgNHVhvO28-14" target="2nkDqUIFO4ZgNHVhvO28-8">
          <mxGeometry relative="1" as="geometry">
            <Array as="points">
              <mxPoint x="120" y="500" />
              <mxPoint x="60" y="500" />
              <mxPoint x="60" y="410" />
            </Array>
          </mxGeometry>
        </mxCell>
        <mxCell id="2nkDqUIFO4ZgNHVhvO28-14" value="scanf(&quot;%lf&quot;, temp_arr + j);" style="rounded=0;whiteSpace=wrap;html=1;" vertex="1" parent="1">
          <mxGeometry x="80" y="450" width="80" height="40" as="geometry" />
        </mxCell>
        <mxCell id="2nkDqUIFO4ZgNHVhvO28-21" style="edgeStyle=orthogonalEdgeStyle;rounded=0;orthogonalLoop=1;jettySize=auto;html=1;entryX=0;entryY=0.5;entryDx=0;entryDy=0;" edge="1" parent="1" source="2nkDqUIFO4ZgNHVhvO28-18" target="2nkDqUIFO4ZgNHVhvO28-4">
          <mxGeometry relative="1" as="geometry">
            <Array as="points">
              <mxPoint x="220" y="520" />
              <mxPoint x="40" y="520" />
              <mxPoint x="40" y="230" />
            </Array>
          </mxGeometry>
        </mxCell>
        <mxCell id="2nkDqUIFO4ZgNHVhvO28-18" value="lines[i].elem_line = temp_arr;" style="rounded=0;whiteSpace=wrap;html=1;" vertex="1" parent="1">
          <mxGeometry x="180" y="450" width="80" height="40" as="geometry" />
        </mxCell>
      </root>
    </mxGraphModel>
  </diagram>
</mxfile>
